<svg width="21" height="20" viewBox="0 0 21 20" fill="none" xmlns="http://www.w3.org/2000/svg">
<path d="M2.51068 7.88675C3.02273 5.97574 4.21123 4.31565 5.85527 3.21505C7.4993 2.11446 9.48703 1.64823 11.449 1.90303C13.4109 2.15783 15.2136 3.11633 16.522 4.60036C17.8304 6.08439 18.5554 7.993 18.5623 9.97142C18.5692 11.9498 17.8576 13.8635 16.5596 15.3566C15.2617 16.8498 13.4658 17.8209 11.5056 18.0894C9.54553 18.3579 7.55458 17.9056 5.90288 16.8166C4.25118 15.7275 3.05109 14.0758 2.52567 12.1684" stroke="#100F21" stroke-width="1.5"></path>
<path d="M10.397 5.91699V10.1939L12.7298 12.3323" stroke="#100F21" stroke-width="1.5" stroke-linecap="square"></path>
<path d="M0.662582 5.49058L2.4728 8.62596L5.60817 6.81575" stroke="#100F21" stroke-width="1.5"></path>
</svg>